<svg xmlns="http://www.w3.org/2000/svg" width="116" height="36"><g fill="none" fill-rule="evenodd"><g fill-rule="nonzero"><path fill="#0A2052" d="M40 5.217a38.252 38.252 0 0 1-.789 4.223 39.681 39.681 0 0 1-1.196 4.038 32.786 32.786 0 0 0-7.36-3.626 31.645 31.645 0 0 0-3.92-1.082c-.017-.007-.041-.007-.066-.015a31.491 31.491 0 0 0-4.034-.574c-.3-.024-.61-.048-.91-.064-.57-.025-1.148-.04-1.725-.04-.577 0-1.155.015-1.724.04-.301.016-.61.04-.911.064a31.491 31.491 0 0 0-4.034.574c-.025.008-.05.008-.065.015a31.645 31.645 0 0 0-3.92 1.082c-1.294.445-2.555.97-3.766 1.568a31.363 31.363 0 0 0-3.587 2.051A38.952 38.952 0 0 1 .789 9.448 40.794 40.794 0 0 1 0 5.218a39.06 39.06 0 0 1 3.88-1.915 38.384 38.384 0 0 1 3.969-1.47A41.941 41.941 0 0 1 11.875.808a41.434 41.434 0 0 1 4.05-.606h.016A39.582 39.582 0 0 1 20 0c1.375 0 2.725.065 4.059.202h.016c1.374.137 2.725.34 4.05.606a41.62 41.62 0 0 1 4.026 1.025c1.359.42 2.676.912 3.97 1.462A39.12 39.12 0 0 1 40 5.217"/><path fill="#31C7C3" d="M36.957 17.653a36.31 36.31 0 0 1-1.17 2.302h-.009c-.245.46-.507.912-.77 1.355-.474.774-.965 1.53-1.48 2.269-.262.387-.54.765-.819 1.135a38.16 38.16 0 0 1-2.618 3.163 38.19 38.19 0 0 1-2.3 2.31 38.998 38.998 0 0 1-3.477 2.9 40.465 40.465 0 0 1-3.88 2.565 39.35 39.35 0 0 1-3.87-2.564 37.974 37.974 0 0 1-3.486-2.9 38.064 38.064 0 0 1-2.291-2.311 38.16 38.16 0 0 1-2.619-3.163 22.19 22.19 0 0 1-.818-1.135 34.49 34.49 0 0 1-1.481-2.277 41.127 41.127 0 0 1-1.956-3.648 27.337 27.337 0 0 1 3.519-2.138 27.917 27.917 0 0 1 3.772-1.603c.385.822.802 1.636 1.244 2.425.246.42.5.839.753 1.25a34.66 34.66 0 0 0 1.506 2.194c.351.46.712.92 1.08 1.365a29.77 29.77 0 0 0 1.587 1.758 25.51 25.51 0 0 0 1.932 1.85c.368.337.744.656 1.129.961a20.95 20.95 0 0 0 1.13-.961c.67-.576 1.317-1.2 1.93-1.85a29.77 29.77 0 0 0 1.588-1.758c.368-.445.728-.905 1.08-1.365a34.773 34.773 0 0 0 1.506-2.194 33.385 33.385 0 0 0 1.996-3.675c1.301.444 2.562.979 3.773 1.603a27.337 27.337 0 0 1 3.519 2.137"/></g><path fill="#0A2052" d="M52 18.01c0-3.72 2.081-7.01 6.602-7.01 2.69 0 4.86 1.366 5.963 3.904l-2.179.904c-.629-1.846-2.062-2.674-3.804-2.674-2.894 0-4.143 2.261-4.143 4.78 0 2.7 1.249 4.903 4.182 4.903 1.965 0 3.553-1.317 3.824-3.384h-3.108v-1.97h5.489v7.345H62.88l-.213-1.914C61.931 24.174 60.441 25 58.621 25 54.12 25 52 21.741 52 18.01zm14.839 4.884V11.221H69.2v11.03c0 .451.3.643.774.643.136 0 .397-.018.649-.057v1.97c-.494.097-1.2.193-1.762.193-1.113 0-2.023-.413-2.023-2.106zm4.682-1.038c0-2.086 1.684-2.779 3.852-2.779h2.517c0-1.22-.658-2.028-1.907-2.028-1.113 0-1.858.652-2.275 1.355l-1.81-1.298c.93-1.259 2.159-2.105 4.066-2.105 2.633 0 4.182 1.633 4.182 3.98v5.827H78.2l-.155-1.376C77.212 24.634 76.186 25 75.035 25c-1.985 0-3.514-1.135-3.514-3.144zm6.369-1.086h-2.381c-1.075 0-1.568.556-1.568 1.163 0 .634.513 1.086 1.432 1.086 1.346 0 2.478-1.047 2.517-2.25zm13.024-9.55v13.588h-2.197l-.107-1.077c-.668.903-1.732 1.269-2.807 1.269-2.72 0-4.192-2.317-4.192-5 0-2.654 1.472-5 4.153-5 1.007 0 2.081.336 2.75 1.164v-4.943h2.4zM88.717 20c0-1.616-.717-2.875-2.343-2.875s-2.361 1.28-2.361 2.874c0 1.617.735 2.877 2.361 2.877 1.626 0 2.343-1.241 2.343-2.877zm4.53 4.808v-9.605h2.343v9.605h-2.343zm4.676-4.549v-5.056h2.39v5.134c0 1.716.443 2.539 1.753 2.539 1.104 0 2.236-.376 2.236-3.347v-4.326h2.4v9.605h-2.4v-1.125c-.697.904-1.704 1.317-2.856 1.317-2.44 0-3.523-1.846-3.523-4.74zm10.168 2.048l1.878-.826c.261.692.775 1.577 2.062 1.577 1.094 0 1.568-.634 1.568-1.145 0-1.615-4.86-.528-4.86-3.923 0-2.028 1.724-2.99 3.592-2.99 1.665 0 2.933.788 3.669 2.086l-1.83.992c-.329-.597-.87-1.221-1.916-1.221-.775 0-1.25.374-1.25.826 0 1.452 4.918.587 4.918 4.115 0 2.22-1.945 3.202-3.775 3.202-2.033 0-3.581-1.212-4.056-2.693zm-12.498-9.374a1.17 1.17 0 0 1-1.175 1.167 1.17 1.17 0 0 1-1.174-1.167 1.17 1.17 0 0 1 1.174-1.167 1.17 1.17 0 0 1 1.175 1.167z"/></g></svg>
